<svg width="6244" height="1561" viewBox="0 0 6244 1561" fill="none" xmlns="http://www.w3.org/2000/svg">
<g filter="url(#filter0_d_2523_22)">
<path d="M2495.21 1049.66C2509.82 1049.66 2626.46 998.851 2682.96 973.449C2332.67 973.449 1629.49 988.104 1600.8 973.449C1555.7 950.404 2328.33 780 2826.38 656.897C2849.16 651.267 2885.42 621.243 2901.06 607.565L1259.21 627.587C1238.35 627.587 1045.38 686.207 951.509 715.518C1260.42 701.741 1440.89 697.92 1775.51 697.931C1796.37 721.38 1165.33 859.138 570.798 1026.21C529.076 1037.93 503 1052.59 503 1061.38C655.98 1080.92 969.24 1120 998.446 1120C1034.95 1120 2476.96 1049.66 2495.21 1049.66Z" fill="black"/>
<path d="M4316.16 607.501C4334.32 607.501 4343.52 629.375 4330.8 642.349L4082.31 895.945C4073.19 905.255 4060.71 910.501 4047.67 910.501H3655C3653.07 910.501 3651.5 912.068 3651.5 914.001V939.436C3651.5 941.219 3652.55 942.835 3654.19 943.554L4047.49 1116.82C4062.84 1123.58 4058.01 1146.5 4041.24 1146.5H3611.47L3083.97 910.501H2757.35C2749.28 910.501 2745.75 900.305 2752.1 895.317L2813.95 846.715C2824.44 838.478 2837.38 834.001 2850.71 834.001H3672C3675.78 834.001 3680.51 832.495 3685.98 829.57C3691.4 826.668 3697.32 822.482 3703.43 817.394C3715.64 807.219 3728.36 793.608 3738.9 779.975C3749.47 766.297 3757.67 752.808 3761.04 742.889C3762.75 737.845 3763.03 734.231 3762.28 732.048C3761.93 731.051 3761.38 730.362 3760.58 729.884C3759.74 729.379 3758.45 729.005 3756.5 729.005H2538.5L2537.92 724.073C2638.5 700.099 2736.55 676.525 2825.78 654.471C2836.72 651.767 2851.41 643.678 2865.49 634.381C2879.5 625.131 2892.62 614.883 2900.35 608.119L2901.06 607.501H4316.16Z" fill="black"/>
<path fill-rule="evenodd" clip-rule="evenodd" d="M5723.02 397.485C5732.68 397.495 5740.5 405.328 5740.5 414.985V428.836C5740.5 434.048 5738.69 439.098 5735.38 443.124L5187.93 1109.09C5168.46 1132.78 5139.41 1146.5 5108.75 1146.5H4318.5V1089.16L4651.58 651.147C4655.84 645.55 4651.85 637.501 4644.82 637.501H4427C4417.33 637.501 4409.5 629.666 4409.5 620.001V611.894C4409.5 604.259 4413.55 597.197 4420.14 593.34L4739.79 406.181C4750.62 399.842 4762.94 396.507 4775.48 396.52L5723.02 397.485ZM4811.44 507.001C4800.96 507.001 4790.61 509.426 4781.22 514.087L4740.55 534.264C4734.09 537.472 4730 544.067 4730 551.284V554.001C4730 562.285 4736.72 569.001 4745 569.001H4874.5L4541.68 994.026C4538.65 997.898 4537 1002.67 4537 1007.59V1017C4537 1022.52 4541.48 1027 4547 1027H4964.33L5339.82 541.907C5342.53 538.403 5344 534.097 5344 529.665V522.001C5344 513.717 5337.28 507.001 5329 507.001H4811.44Z" fill="black"/>
</g>
<defs>
<filter id="filter0_d_2523_22" x="499" y="396.52" width="5245.5" height="757.982" filterUnits="userSpaceOnUse" color-interpolation-filters="sRGB">
<feFlood flood-opacity="0" result="BackgroundImageFix"/>
<feColorMatrix in="SourceAlpha" type="matrix" values="0 0 0 0 0 0 0 0 0 0 0 0 0 0 0 0 0 0 127 0" result="hardAlpha"/>
<feOffset dy="4"/>
<feGaussianBlur stdDeviation="2"/>
<feComposite in2="hardAlpha" operator="out"/>
<feColorMatrix type="matrix" values="0 0 0 0 0 0 0 0 0 0 0 0 0 0 0 0 0 0 1 0"/>
<feBlend mode="normal" in2="BackgroundImageFix" result="effect1_dropShadow_2523_22"/>
<feBlend mode="normal" in="SourceGraphic" in2="effect1_dropShadow_2523_22" result="shape"/>
</filter>
</defs>
</svg>
