<svg width="777" height="95" viewBox="0 0 777 95" fill="none" xmlns="http://www.w3.org/2000/svg">
<g filter="url(#filter0_d_1999_117)">
<path d="M289.471 79.7254C291.564 79.7254 308.279 73.249 316.375 70.0108C266.18 70.0108 165.418 71.879 161.308 70.0108C154.845 67.0732 265.558 45.3509 336.925 29.6581C340.19 28.9404 345.52 25.4236 347.761 23.68L112.36 25.9218C109.37 25.9218 81.72 33.3945 68.2684 37.1309C112.533 35.3746 138.394 34.8876 186.343 34.889C189.332 37.8781 98.908 55.439 13.715 76.7363C7.73654 78.2308 4 80.099 4 81.2199C25.921 83.7108 70.8093 88.6926 74.9942 88.6926C80.2254 88.6926 286.856 79.7254 289.471 79.7254Z" fill="#FF0000"/>
<path fill-rule="evenodd" clip-rule="evenodd" d="M538.881 23.6711C543.617 23.6711 546.149 29.2491 543.032 32.8143L519.194 60.0734C513.262 66.8576 504.688 70.7493 495.676 70.7493H333.677C328.952 70.7493 326.416 65.1962 329.51 61.6258L355.803 31.2825C359.992 26.4485 366.073 23.6711 372.469 23.6711H538.881ZM409.352 33.385C402.766 33.385 396.524 36.3291 392.335 41.411L378.637 58.0274C377.649 59.2262 378.501 61.0345 380.055 61.0345H463.676C470.749 61.0345 477.428 57.7751 481.782 52.2L494.156 36.3544C495.098 35.1478 494.239 33.3853 492.708 33.385H409.352Z" fill="white"/>
<path fill-rule="evenodd" clip-rule="evenodd" d="M761.927 23.68C762.579 23.6801 762.927 24.4541 762.488 24.9366C760.983 26.5929 758.205 29.6894 755.393 33.0209H619.955C619.014 33.0224 617.607 33.1186 616.149 33.4529C614.696 33.7862 613.16 34.3636 611.993 35.3503C610.683 36.458 609.095 37.9743 608.155 39.2267C607.919 39.5413 607.717 39.8474 607.57 40.1324C607.427 40.4116 607.321 40.6988 607.306 40.9694C607.291 41.2578 607.382 41.5459 607.643 41.7444C607.88 41.9241 608.203 41.9873 608.557 41.9874H740.098C745.61 41.9874 746.823 43.8563 746.823 46.8454C746.823 49.8345 738.22 58.0004 731.483 64.8098C727.668 68.6656 722.451 70.7581 717.027 70.7581H546.402C542.601 70.7581 540.524 66.3247 542.957 63.4043L570.676 30.1347C574.084 26.0448 579.133 23.68 584.456 23.68H761.927ZM599.843 51.329C599.215 51.329 598.615 51.5927 598.19 52.0559L592.932 57.7918C592.053 58.7504 592.734 60.2963 594.034 60.2963H688.752C689.567 60.2963 690.347 59.9636 690.911 59.3753L696.199 53.8576C697.11 52.9073 696.436 51.3291 695.12 51.329H599.843Z" fill="white"/>
<path d="M591.774 2.02601H571.193C571.193 2.02601 566.994 2.31128 565.874 4.66478C564.754 7.01828 563.284 10.3697 563.284 10.3697C563.284 10.3697 561.604 13.9356 566.504 13.9356H586.874C586.874 13.9356 591.423 14.3635 593.033 11.1542C594.644 7.94485 595.833 5.09269 595.833 5.09269C595.833 5.09269 597.304 2.09732 591.774 2.02601ZM590.863 5.44871C590.863 5.44871 589.254 8.80067 588.623 10.441C587.993 12.0813 586.279 11.7601 586.279 11.7601H569.513C567.203 11.7601 568.253 10.0838 568.253 10.0838C568.253 10.0838 570.003 6.30453 570.563 5.16344C571.123 4.02235 573.013 4.20036 573.013 4.20036H589.393C591.563 4.20093 590.863 5.44871 590.863 5.44871ZM617.708 10.4165L626.449 13.543C626.763 13.6572 626.817 13.9356 626.484 13.9356H619.319C618.986 13.9356 618.319 13.8392 618.007 13.7211L608.316 10.0559C606.746 9.46193 605.445 8.91136 605.248 8.83604C604.688 8.62209 605.038 7.98022 605.038 7.98022C605.038 7.98022 605.133 7.94485 605.413 7.23167C605.693 6.51849 606.743 6.5898 606.743 6.5898C606.743 6.5898 618.889 6.66112 620.498 6.5898C622.108 6.51849 622.248 5.87605 622.248 5.87605C622.248 5.87605 622.398 5.6621 622.678 4.94948C622.958 4.2363 621.419 4.20036 621.419 4.20036H605.949C604.688 4.20036 604.338 4.94948 604.338 4.94948C604.338 4.94948 601.049 12.2947 600.628 13.2218C600.208 14.149 599.648 13.935 599.648 13.935H596.149C595.448 13.935 595.869 13.2218 595.869 13.2218C595.869 13.2218 600.068 3.80839 600.488 2.80937C600.909 1.81148 601.958 2.02544 601.958 2.02544H624.498C628.629 2.09675 627.508 4.30762 627.508 4.30762C627.508 4.30762 627.203 4.7709 626.249 7.08903C625.297 9.39803 621.209 9.08537 621.209 9.08537H613.988L616.059 9.81681L617.708 10.4165ZM652.4 7.17005C656.088 4.56323 658.799 2.6325 658.799 2.6325C659.324 2.31185 659.289 2.02658 658.869 2.02658H655.309C654.976 2.02658 654.48 2.18291 654.205 2.37461L641.308 11.3767C641.246 11.4224 641.174 11.4538 641.099 11.4689C641.023 11.4839 640.946 11.4823 640.871 11.464C640.796 11.4457 640.726 11.4112 640.666 11.3628C640.605 11.3145 640.556 11.2534 640.52 11.1838L635.918 2.56688C635.759 2.26906 635.357 2.02601 635.024 2.02601H631.639C631.639 2.02601 630.239 1.88337 630.729 2.80994C631.219 3.73764 636.119 12.5805 636.119 12.5805C636.119 12.5805 636.609 13.9356 638.219 13.9356H641.229C641.229 13.9356 642.788 13.9339 644.729 12.5805L652.4 7.17005ZM661.608 13.9356C657.188 13.9356 658.973 10.5123 658.973 10.5123C658.973 10.5123 660.933 6.0552 661.913 4.05829C662.869 2.11159 666.708 2.02601 666.708 2.02601H689.483C689.816 2.02601 689.965 2.27305 689.814 2.57544L689.277 3.65206C689.126 3.95388 688.731 4.20093 688.398 4.20093H668.039C666.288 4.20093 665.904 5.34259 665.904 5.34259C665.904 5.34259 664.399 8.58729 663.674 10.263C662.95 11.9358 664.374 11.7607 664.374 11.7607H685.014C685.346 11.7607 685.505 12.0128 685.367 12.3204L684.891 13.3759C684.752 13.6834 684.366 13.9356 684.034 13.9356H661.608Z" fill="white"/>
<path d="M687.823 7.14158C687.972 6.83862 687.822 6.59043 687.489 6.59043H668.188C667.856 6.59043 667.461 6.83805 667.31 7.13987L666.597 8.57251C666.447 8.87433 666.596 9.12138 666.929 9.12081L686.264 9.08715C686.597 9.08657 686.991 8.83782 687.139 8.53486L687.823 7.14158ZM741.9 2.5795C742.044 2.27311 741.888 2.02264 741.556 2.02264H694.15C693.818 2.02264 693.429 2.27254 693.286 2.5795L692.79 3.64128C692.647 3.94767 692.802 4.19813 693.135 4.19813H702.985C703.319 4.19813 703.481 4.45203 703.347 4.7624L699.519 13.3685C699.386 13.6789 699.548 13.9328 699.881 13.9328H703.536C703.869 13.9328 704.255 13.6812 704.394 13.3737L708.412 4.75727C708.552 4.44975 708.938 4.19813 709.27 4.19813H724.406C724.739 4.19813 724.901 4.45203 724.767 4.7624L720.889 13.3685C720.755 13.6789 720.918 13.9328 721.25 13.9328H724.871C725.203 13.9328 725.587 13.68 725.724 13.3708L729.697 4.75955C729.834 4.45089 730.218 4.19813 730.551 4.19813H740.541C740.874 4.19813 741.262 3.94824 741.405 3.64128L741.9 2.5795ZM557.229 13.9356C557.345 13.9345 557.995 13.6726 558.141 13.3662L558.69 12.3124C558.835 12.0078 558.681 11.759 558.349 11.7602L538.6 11.7351C538.6 11.7351 536.466 12.1276 537.446 9.91615C538.426 7.70585 539.58 5.17377 539.58 5.17377C539.58 5.17377 540.114 4.19985 541.479 4.19985H561.779C562.111 4.19756 562.498 3.94481 562.64 3.63786L563.108 2.61487C563.249 2.30735 563.118 1.99925 562.786 2.00039H541.015C541.015 2.00039 536.815 1.92907 535.625 3.71203C534.435 5.49499 532.615 10.0599 532.615 10.0599C532.615 10.0599 531.014 13.9362 535.634 13.9362L557.229 13.9356ZM744.715 13.9334C740.295 13.9334 742.08 10.5101 742.08 10.5101C742.08 10.5101 744.04 6.05298 745.02 4.05607C745.976 2.1088 749.815 2.02378 749.815 2.02378H772.59C772.923 2.02378 773.071 2.2714 772.921 2.57322L772.384 3.64984C772.233 3.95166 771.838 4.19928 771.505 4.19928H751.145C749.394 4.19928 749.011 5.34037 749.011 5.34037C749.011 5.34037 747.505 8.58563 746.781 10.2613C746.057 11.9342 747.481 11.759 747.481 11.759H768.121C768.454 11.759 768.612 12.0106 768.473 12.3187L767.997 13.3742C767.859 13.6818 767.473 13.9339 767.141 13.9339L744.715 13.9334Z" fill="white"/>
<path d="M770.93 7.13811C771.079 6.83515 770.928 6.58696 770.595 6.58696H751.295C750.962 6.58696 750.567 6.83458 750.417 7.13697L749.704 8.56904C749.553 8.87143 749.703 9.11791 750.036 9.11791L769.37 9.08424C769.704 9.0831 770.097 8.83491 770.246 8.53195L770.93 7.13811Z" fill="white"/>
</g>
<defs>
<filter id="filter0_d_1999_117" x="0" y="0" width="776.979" height="94.6934" filterUnits="userSpaceOnUse" color-interpolation-filters="sRGB">
<feFlood flood-opacity="0" result="BackgroundImageFix"/>
<feColorMatrix in="SourceAlpha" type="matrix" values="0 0 0 0 0 0 0 0 0 0 0 0 0 0 0 0 0 0 127 0" result="hardAlpha"/>
<feOffset dy="2"/>
<feGaussianBlur stdDeviation="2"/>
<feComposite in2="hardAlpha" operator="out"/>
<feColorMatrix type="matrix" values="0 0 0 0 0 0 0 0 0 0 0 0 0 0 0 0 0 0 1 0"/>
<feBlend mode="normal" in2="BackgroundImageFix" result="effect1_dropShadow_1999_117"/>
<feBlend mode="normal" in="SourceGraphic" in2="effect1_dropShadow_1999_117" result="shape"/>
</filter>
</defs>
</svg>
